<svg width="30" height="9" viewBox="0 0 30 9" fill="none" xmlns="http://www.w3.org/2000/svg">
<path d="M0.059082 1.43652L0.0375977 1.06055H0.494141L0.649902 1.05518C0.864746 1.04443 1.01335 1.03906 1.0957 1.03906C1.13867 1.03906 1.264 1.04264 1.47168 1.0498C1.51823 1.05339 1.55762 1.05518 1.58984 1.05518C1.62207 1.05518 1.73486 1.0516 1.92822 1.04443C2.12158 1.03727 2.23079 1.03369 2.25586 1.03369C2.29525 1.03369 2.35075 1.03548 2.42236 1.03906C2.9738 1.54036 3.42318 1.97184 3.77051 2.3335C4.11784 2.69515 5.38542 3.96094 7.57324 6.13086V5.99658L7.55176 5.37354C7.54102 5.0083 7.52669 4.72005 7.50879 4.50879C7.49089 4.29395 7.48014 4.03971 7.47656 3.74609C7.47298 3.44889 7.46045 3.18034 7.43896 2.94043C7.396 2.47135 7.37451 2.20101 7.37451 2.12939C7.37093 1.89665 7.34587 1.75521 7.29932 1.70508C7.22412 1.6263 7.05225 1.56722 6.78369 1.52783C6.58675 1.49561 6.43994 1.45443 6.34326 1.4043L6.34863 1.0874L6.48828 1.07129L7.54639 1.03906L8.72803 1.00684C8.8068 1.00326 8.882 1.00146 8.95361 1.00146L8.95898 1.35059C8.87663 1.39355 8.79248 1.42578 8.70654 1.44727C8.47738 1.50098 8.34489 1.53857 8.30908 1.56006C8.12646 1.6639 8.02799 1.72656 8.01367 1.74805C7.98145 1.79102 7.96533 1.85726 7.96533 1.94678C7.96533 1.96826 7.96891 2.04346 7.97607 2.17236C7.97965 2.23682 7.98145 2.38721 7.98145 2.62354C7.98503 3.14274 7.99935 3.55273 8.02441 3.85352C8.03158 3.9502 8.03695 4.05941 8.04053 4.18115L8.09961 6.06641C8.10319 6.19889 8.10498 6.29199 8.10498 6.3457V7.00635L8.12109 7.28564L8.10498 7.57568C8.1193 7.72249 8.12646 7.81022 8.12646 7.83887V8.12354L7.50879 8.14502L6.86963 7.48438L5.56445 6.18994L4.65137 5.27686L3.97998 4.58936C3.54313 4.15967 3.14567 3.7819 2.7876 3.45605L1.91211 2.6665L1.96045 4.66455C1.96403 4.7863 1.96582 4.91162 1.96582 5.04053L1.96045 5.42188L1.99268 6.12549C2.00342 6.41911 2.02311 6.73779 2.05176 7.08154C2.05892 7.17464 2.06787 7.24089 2.07861 7.28027C2.08936 7.31608 2.11084 7.36979 2.14307 7.44141C2.28271 7.49154 2.58708 7.52913 3.05615 7.5542C3.08838 7.56136 3.13493 7.57389 3.1958 7.5918L3.21729 8.02686L3.00781 8.03223C2.89323 8.03223 2.53158 8.00537 1.92285 7.95166C1.35352 7.95882 0.973958 7.96956 0.78418 7.98389C0.594401 7.99821 0.49056 8.00537 0.472656 8.00537C0.429688 8.00537 0.370605 7.99821 0.29541 7.98389C0.288249 7.90153 0.284668 7.82992 0.284668 7.76904C0.284668 7.72965 0.286458 7.6652 0.290039 7.57568C0.390299 7.55778 0.472656 7.54883 0.537109 7.54883C0.558594 7.54883 0.628418 7.55241 0.746582 7.55957C1.04736 7.55957 1.22461 7.53809 1.27832 7.49512C1.33561 7.44857 1.36784 7.32682 1.375 7.12988C1.40007 6.56055 1.4126 6.21322 1.4126 6.08789V5.79248L1.42334 4.04688L1.40723 2.95654C1.40365 2.54118 1.37679 2.25293 1.32666 2.0918C1.30518 2.00944 1.264 1.93783 1.20312 1.87695C1.0778 1.74805 0.938151 1.65137 0.78418 1.58691C0.691081 1.54753 0.449382 1.4974 0.059082 1.43652ZM9.72168 7.96777V7.58105C9.79329 7.55957 9.91146 7.52913 10.0762 7.48975C10.3089 7.43245 10.4826 7.37337 10.5972 7.3125C10.6616 7.2015 10.6938 7.04753 10.6938 6.85059L10.6885 6.2168L10.6992 4.99219L10.6938 4.70215C10.7189 3.99316 10.7314 3.62793 10.7314 3.60645L10.7207 2.89209L10.7368 2.60205L10.71 1.98975L10.7046 1.75879C10.701 1.72298 10.6885 1.66569 10.667 1.58691C10.5202 1.51888 10.2821 1.47591 9.95264 1.45801C9.87386 1.45443 9.8112 1.44906 9.76465 1.44189L9.74854 0.969238L11.2847 1.03369C11.4744 1.04085 11.5926 1.04443 11.6392 1.04443C11.8504 1.04443 12.1888 1.03011 12.6543 1.00146C12.9157 0.983561 13.0804 0.972819 13.1484 0.969238C13.152 1.03727 13.1538 1.09456 13.1538 1.14111C13.1538 1.20199 13.1502 1.28076 13.1431 1.37744C12.9998 1.42757 12.8351 1.47591 12.6489 1.52246C12.4663 1.56543 12.3159 1.61019 12.1978 1.65674C12.1763 1.74984 12.1655 1.88411 12.1655 2.05957C12.1655 2.21354 12.1709 2.33887 12.1816 2.43555C12.1709 3.04069 12.1655 3.50618 12.1655 3.83203L12.1709 5.25L12.1548 5.96973L12.1655 7.04395L12.1602 7.24805C12.1602 7.27669 12.1673 7.31787 12.1816 7.37158C12.4001 7.41813 12.5988 7.45036 12.7778 7.46826C12.8101 7.47184 12.9193 7.48617 13.1055 7.51123C13.1198 7.61865 13.127 7.70817 13.127 7.77979C13.127 7.81917 13.1252 7.88005 13.1216 7.9624C13.075 7.9624 13.0392 7.96419 13.0142 7.96777C12.8996 7.97493 12.8333 7.97852 12.8154 7.97852C12.7904 7.97852 12.7438 7.97314 12.6758 7.9624C12.6257 7.95524 12.3875 7.93018 11.9614 7.88721L11.0107 7.87646C10.821 7.87646 10.5452 7.89437 10.1836 7.93018C9.94727 7.95166 9.79329 7.96419 9.72168 7.96777ZM20.2437 1.125C20.2902 1.23242 20.3851 1.53857 20.5283 2.04346C20.5928 2.27262 20.6268 2.51611 20.6304 2.77393H20.1416C19.7979 2.28695 19.4434 1.93783 19.0781 1.72656C18.7129 1.51172 18.3047 1.4043 17.8535 1.4043C17.2985 1.4043 16.8509 1.62093 16.5107 2.0542C16.0488 2.64144 15.8179 3.45964 15.8179 4.50879C15.8179 5.11751 15.8573 5.55078 15.936 5.80859C16.0649 6.22754 16.2279 6.5695 16.4248 6.83447C16.5752 7.03499 16.7721 7.19434 17.0156 7.3125C17.3307 7.47363 17.6673 7.5542 18.0254 7.5542C18.4193 7.5542 18.7988 7.43245 19.1641 7.18896C19.5329 6.94189 19.8856 6.57487 20.2222 6.08789C20.3547 6.06283 20.5283 6.0485 20.7432 6.04492C20.7288 6.18099 20.7056 6.32243 20.6733 6.46924C20.6626 6.52653 20.6214 6.75391 20.5498 7.15137L20.5015 7.3125L20.4263 7.56494C20.2078 7.73324 19.8999 7.86035 19.5024 7.94629C19.1086 8.02865 18.6234 8.06982 18.0469 8.06982C17.6064 8.06982 17.1893 8.02865 16.7954 7.94629C16.4051 7.86393 16.0703 7.73324 15.791 7.5542C15.3828 7.29639 15.0623 7.01709 14.8296 6.71631C14.5968 6.41553 14.4232 6.08789 14.3086 5.7334C14.1976 5.37891 14.1421 4.98145 14.1421 4.54102C14.1421 3.47396 14.493 2.5931 15.1948 1.89844C15.9002 1.20378 16.799 0.856445 17.8911 0.856445C18.3351 0.856445 18.7523 0.87972 19.1426 0.92627C19.5365 0.969238 19.9035 1.03548 20.2437 1.125ZM21.5811 4.40137C21.5811 3.95736 21.667 3.51156 21.8389 3.06396C21.9642 2.7417 22.1396 2.44629 22.3652 2.17773C22.5908 1.90918 22.8737 1.67106 23.2139 1.46338C23.554 1.25212 23.9014 1.10173 24.2559 1.01221C24.6104 0.919108 25.006 0.872559 25.4429 0.872559C26.1877 0.872559 26.834 1.01221 27.3818 1.2915C27.9297 1.5708 28.3612 1.94857 28.6763 2.4248C29.0845 3.04427 29.2886 3.69417 29.2886 4.37451C29.2886 5.38786 28.943 6.25618 28.252 6.97949C27.5645 7.7028 26.6066 8.06445 25.3784 8.06445C25.0741 8.06445 24.7894 8.04476 24.5244 8.00537C24.3239 7.97673 24.1484 7.93734 23.998 7.88721C23.7259 7.79769 23.5737 7.74577 23.5415 7.73145C23.1512 7.50944 22.8379 7.28206 22.6016 7.04932C22.3652 6.81657 22.1647 6.55339 22 6.25977C21.9105 6.09505 21.8084 5.79785 21.6938 5.36816C21.6187 5.09245 21.5811 4.77018 21.5811 4.40137ZM25.2388 1.4043C24.9272 1.4043 24.6515 1.4777 24.4116 1.62451C24.1717 1.76774 23.9909 1.92708 23.8691 2.10254C23.665 2.39974 23.52 2.72559 23.4341 3.08008C23.3481 3.43099 23.3052 3.85889 23.3052 4.36377C23.3052 4.67171 23.3177 4.89193 23.3428 5.02441C23.3499 5.06738 23.3607 5.14079 23.375 5.24463C23.4072 5.5096 23.4448 5.70296 23.4878 5.82471C23.6418 6.27946 23.751 6.56055 23.8154 6.66797C23.9229 6.85059 24.0822 7.03141 24.2935 7.21045C24.4009 7.30355 24.5566 7.38949 24.7607 7.46826C24.9648 7.54346 25.1689 7.58105 25.373 7.58105C25.7598 7.58105 26.1178 7.49154 26.4473 7.3125C26.7803 7.12988 27.047 6.82194 27.2476 6.38867C27.4481 5.9554 27.5483 5.39144 27.5483 4.69678C27.5483 4.41032 27.5286 4.02181 27.4893 3.53125L27.4624 3.4292C27.4517 3.40055 27.4338 3.32715 27.4087 3.20898C27.2762 2.62174 27.022 2.17415 26.646 1.86621C26.2736 1.55827 25.8045 1.4043 25.2388 1.4043Z" fill="white"/>
</svg>
